<svg xmlns="http://www.w3.org/2000/svg">
<defs>
  <symbol id="icon-german-flag" viewBox="0 0 30 30.000001">
    <defs><clipPath id="id1"><path d="M 2.613281 18 L 27.292969 18 L 27.292969 23.722656 L 2.613281 23.722656 Z M 2.613281 18 " clip-rule="nonzero"/></clipPath><clipPath id="id2"><path d="M 2.613281 11 L 27.292969 11 L 27.292969 19 L 2.613281 19 Z M 2.613281 11 " clip-rule="nonzero"/></clipPath><clipPath id="id3"><path d="M 2.613281 5.578125 L 27.292969 5.578125 L 27.292969 12 L 2.613281 12 Z M 2.613281 5.578125 " clip-rule="nonzero"/></clipPath></defs><g clip-path="url(#id1)"><path fill="rgb(100%, 80.389404%, 1.959229%)" d="M 2.625 20.929688 C 2.625 22.472656 3.851562 23.722656 5.363281 23.722656 L 24.542969 23.722656 C 26.054688 23.722656 27.28125 22.472656 27.28125 20.929688 L 27.28125 18.136719 L 2.625 18.136719 Z M 2.625 20.929688 " fill-opacity="1" fill-rule="nonzero"/></g><g clip-path="url(#id2)"><path fill="rgb(92.939758%, 12.159729%, 14.118958%)" d="M 2.625 11.855469 L 27.28125 11.855469 L 27.28125 18.136719 L 2.625 18.136719 Z M 2.625 11.855469 " fill-opacity="1" fill-rule="nonzero"/></g><g clip-path="url(#id3)"><path fill="rgb(7.839966%, 7.839966%, 7.839966%)" d="M 24.542969 5.578125 L 5.363281 5.578125 C 3.851562 5.578125 2.625 6.828125 2.625 8.367188 L 2.625 11.855469 L 27.28125 11.855469 L 27.28125 8.367188 C 27.28125 6.828125 26.054688 5.578125 24.542969 5.578125 Z M 24.542969 5.578125 " fill-opacity="1" fill-rule="nonzero"/></g>
  </symbol>
  <symbol id="icon-england-flag" viewBox="0 0 30 30.000001">
    <defs><clipPath id="id1"><path d="M 2.511719 6.402344 L 27.191406 6.402344 L 27.191406 24.546875 L 2.511719 24.546875 Z M 2.511719 6.402344 " clip-rule="nonzero"/></clipPath></defs><g clip-path="url(#id1)"><path fill="rgb(0%, 14.118958%, 49.01886%)" d="M 2.519531 9.234375 L 2.519531 11.984375 L 6.375 11.984375 Z M 5.714844 24.546875 L 11.425781 24.546875 L 11.425781 20.472656 Z M 18.277344 20.472656 L 18.277344 24.546875 L 23.984375 24.546875 Z M 2.519531 18.964844 L 2.519531 21.714844 L 6.378906 18.964844 Z M 23.988281 6.402344 L 18.277344 6.402344 L 18.277344 10.472656 Z M 27.183594 21.714844 L 27.183594 18.964844 L 23.324219 18.964844 Z M 27.183594 11.984375 L 27.183594 9.234375 L 23.324219 11.984375 Z M 11.425781 6.402344 L 5.714844 6.402344 L 11.425781 10.472656 Z M 11.425781 6.402344 " fill-opacity="1" fill-rule="nonzero"/><path fill="rgb(81.17981%, 10.5896%, 16.859436%)" d="M 19.742188 18.964844 L 26.394531 23.710938 C 26.71875 23.375 26.949219 22.953125 27.074219 22.488281 L 22.132812 18.964844 Z M 11.425781 18.964844 L 9.960938 18.964844 L 3.304688 23.707031 C 3.664062 24.078125 4.121094 24.34375 4.632812 24.464844 L 11.425781 19.621094 Z M 18.277344 11.984375 L 19.742188 11.984375 L 26.394531 7.238281 C 26.039062 6.867188 25.582031 6.605469 25.070312 6.480469 L 18.277344 11.324219 Z M 9.960938 11.984375 L 3.304688 7.238281 C 2.984375 7.574219 2.753906 7.992188 2.628906 8.460938 L 7.570312 11.984375 Z M 9.960938 11.984375 " fill-opacity="1" fill-rule="nonzero"/><path fill="rgb(93.328857%, 93.328857%, 93.328857%)" d="M 27.183594 17.566406 L 16.90625 17.566406 L 16.90625 24.546875 L 18.277344 24.546875 L 18.277344 20.472656 L 23.984375 24.546875 L 24.441406 24.546875 C 25.207031 24.546875 25.898438 24.222656 26.394531 23.710938 L 19.742188 18.964844 L 22.132812 18.964844 L 27.074219 22.488281 C 27.136719 22.253906 27.183594 22.011719 27.183594 21.753906 L 27.183594 21.714844 L 23.324219 18.964844 L 27.183594 18.964844 Z M 2.519531 17.566406 L 2.519531 18.964844 L 6.378906 18.964844 L 2.519531 21.714844 L 2.519531 21.753906 C 2.519531 22.515625 2.820312 23.203125 3.304688 23.707031 L 9.960938 18.964844 L 11.425781 18.964844 L 11.425781 19.621094 L 4.632812 24.464844 C 4.835938 24.515625 5.042969 24.546875 5.261719 24.546875 L 5.714844 24.546875 L 11.425781 20.472656 L 11.425781 24.546875 L 12.796875 24.546875 L 12.796875 17.566406 Z M 27.183594 9.191406 C 27.183594 8.429688 26.882812 7.742188 26.394531 7.238281 L 19.742188 11.984375 L 18.277344 11.984375 L 18.277344 11.324219 L 25.070312 6.480469 C 24.867188 6.433594 24.660156 6.402344 24.441406 6.402344 L 23.988281 6.402344 L 18.277344 10.472656 L 18.277344 6.402344 L 16.90625 6.402344 L 16.90625 13.378906 L 27.183594 13.378906 L 27.183594 11.984375 L 23.324219 11.984375 L 27.183594 9.234375 Z M 11.425781 6.402344 L 11.425781 10.472656 L 5.714844 6.402344 L 5.261719 6.402344 C 4.496094 6.402344 3.804688 6.722656 3.304688 7.238281 L 9.960938 11.984375 L 7.570312 11.984375 L 2.628906 8.460938 C 2.566406 8.695312 2.519531 8.9375 2.519531 9.191406 L 2.519531 9.234375 L 6.375 11.984375 L 2.519531 11.984375 L 2.519531 13.378906 L 12.796875 13.378906 L 12.796875 6.402344 Z M 11.425781 6.402344 " fill-opacity="1" fill-rule="nonzero"/><path fill="rgb(81.17981%, 10.5896%, 16.859436%)" d="M 16.90625 13.378906 L 16.90625 6.402344 L 12.796875 6.402344 L 12.796875 13.378906 L 2.519531 13.378906 L 2.519531 17.566406 L 12.796875 17.566406 L 12.796875 24.546875 L 16.90625 24.546875 L 16.90625 17.566406 L 27.183594 17.566406 L 27.183594 13.378906 Z M 16.90625 13.378906 " fill-opacity="1" fill-rule="nonzero"/></g>
  </symbol>
  <symbol id="icon-trash" viewBox="0 0 512 512">
    <path d="M112 112l20 320c.95 18.49 14.4 32 32 32h184c17.67 0 30.87-13.51 32-32l20-320" stroke-linecap="round" stroke-linejoin="round" stroke-width="32"/><path stroke-linecap="round" stroke-miterlimit="10" stroke-width="32" d="M80 112h352"/><path d="M192 112V72h0a23.93 23.93 0 0124-24h80a23.93 23.93 0 0124 24h0v40M256 176v224M184 176l8 224M328 176l-8 224" fill="none" stroke-linecap="round" stroke-linejoin="round" stroke-width="32"/>
  </symbol>
  <symbol id="icon-arrow-right" viewBox="0 0 512 512">
    <path fill="none" stroke="currentColor" stroke-linecap="round" stroke-linejoin="round" stroke-width="48" d="M268 112l144 144-144 144M392 256H100"/>
  </symbol>
  <symbol id="icon-angle-down" viewBox="0 0 24 24">
    <path fill="none" stroke="currentColor" stroke-width="2" stroke-linecap="round" stroke-linejoin="round" d="M19 9l-7 7-7-7" />
  </symbol>
  <symbol id="icon-correct" viewBox="0 0 512 512">
    <path fill="none" stroke="palegreen" stroke-linecap="round" stroke-linejoin="round" stroke-width="32" d="M464 128L240 384l-96-96M144 384l-96-96M368 128L232 284"/>
  </symbol>
  <symbol id="icon-false" viewBox="0 0 512 512">
    <path fill="none" stroke="tomato" stroke-linecap="round" stroke-linejoin="round" stroke-width="32" d="M368 368L144 144M368 144L144 368"/>
  </symbol>
  <symbol id="icon-translate" viewBox="0 0 576 512">
    <path d="M272 416c17.7 0 32-14.3 32-32s-14.3-32-32-32H160c-17.7 0-32-14.3-32-32V192h32c12.9 0 24.6-7.8 29.6-19.8s2.2-25.7-6.9-34.9l-64-64c-12.5-12.5-32.8-12.5-45.3 0l-64 64c-9.2 9.2-11.9 22.9-6.9 34.9s16.6 19.8 29.6 19.8l32 0 0 128c0 53 43 96 96 96H272zM304 96c-17.7 0-32 14.3-32 32s14.3 32 32 32l112 0c17.7 0 32 14.3 32 32l0 128H416c-12.9 0-24.6 7.8-29.6 19.8s-2.2 25.7 6.9 34.9l64 64c12.5 12.5 32.8 12.5 45.3 0l64-64c9.2-9.2 11.9-22.9 6.9-34.9s-16.6-19.8-29.6-19.8l-32 0V192c0-53-43-96-96-96L304 96z"/>
  </symbol>
  <symbol id="icon-loader" viewBox="0 0 24 24">
    <path d="M11 2v4c0 0.552 0.448 1 1 1s1-0.448 1-1v-4c0-0.552-0.448-1-1-1s-1 0.448-1 1zM11 18v4c0 0.552 0.448 1 1 1s1-0.448 1-1v-4c0-0.552-0.448-1-1-1s-1 0.448-1 1zM4.223 5.637l2.83 2.83c0.391 0.391 1.024 0.391 1.414 0s0.391-1.024 0-1.414l-2.83-2.83c-0.391-0.391-1.024-0.391-1.414 0s-0.391 1.024 0 1.414zM15.533 16.947l2.83 2.83c0.391 0.391 1.024 0.391 1.414 0s0.391-1.024 0-1.414l-2.83-2.83c-0.391-0.391-1.024-0.391-1.414 0s-0.391 1.024 0 1.414zM2 13h4c0.552 0 1-0.448 1-1s-0.448-1-1-1h-4c-0.552 0-1 0.448-1 1s0.448 1 1 1zM18 13h4c0.552 0 1-0.448 1-1s-0.448-1-1-1h-4c-0.552 0-1 0.448-1 1s0.448 1 1 1zM5.637 19.777l2.83-2.83c0.391-0.391 0.391-1.024 0-1.414s-1.024-0.391-1.414 0l-2.83 2.83c-0.391 0.391-0.391 1.024 0 1.414s1.024 0.391 1.414 0zM16.947 8.467l2.83-2.83c0.391-0.391 0.391-1.024 0-1.414s-1.024-0.391-1.414 0l-2.83 2.83c-0.391 0.391-0.391 1.024 0 1.414s1.024 0.391 1.414 0z"></path>
  </symbol>
</defs>
</svg>
